<svg width="512" height="512" viewBox="0 0 512 512" fill="none" xmlns="http://www.w3.org/2000/svg">
<rect width="512" height="512" fill="#EEEEEE"/>
<path d="M122.281 322.82C114.215 311.123 110.359 297.131 111.32 283.051V225.581C110.302 211.398 114.101 197.282 122.125 185.429C129.38 176.285 141.777 171.739 159.315 171.79C176.853 171.841 188.728 175.851 194.939 183.82C202.513 193.696 206.209 205.906 205.352 218.225V231.711H172.938V217.076C172.895 213.225 172.554 209.383 171.92 205.582C171.528 202.83 170.238 200.277 168.24 198.302C167.008 197.268 165.576 196.484 164.03 195.997C162.484 195.51 160.855 195.33 159.237 195.467C156.913 195.128 154.539 195.498 152.437 196.526C150.336 197.554 148.609 199.191 147.492 201.214C145.434 206.595 144.528 212.334 144.83 218.072V291.02C144.473 296.796 145.519 302.573 147.884 307.877C149.013 309.791 150.69 311.34 152.707 312.334C154.723 313.327 156.993 313.723 159.237 313.471C161.441 313.776 163.688 313.392 165.656 312.374C167.624 311.356 169.214 309.755 170.198 307.801C172.092 302.41 172.916 296.714 172.625 291.02V275.695H205.039V288.951C205.993 301.452 202.599 313.901 195.409 324.275C188.519 332.704 176.618 336.842 159.706 336.842C142.795 336.842 129.563 332.245 122.281 322.82Z" fill="#111111"/>
<path d="M247.469 175.158H284.978L316.631 333.474H285.453L279.835 298.493H253.563L247.232 333.248H215.579L247.469 175.158ZM276.353 278.591L266.382 214.963L256.491 278.591H276.353Z" fill="#111111"/>
<path d="M338.715 199.015H313.263V175.158H397.474V199.015H372.336V333.474H338.636L338.715 199.015Z" fill="#111111"/>
</svg>
